<svg width="22" height="19" viewBox="0 0 22 19" fill="none" xmlns="http://www.w3.org/2000/svg">
<path d="M6.2381 7.11122H14.7371L11.7461 1.42087C11.5272 0.983156 11.7096 0.436007 12.1108 0.217148C12.5485 -0.00171146 13.0957 0.180671 13.3146 0.581914L16.7069 7.11122H19.8439C20.464 7.11122 21.0111 7.65837 21.0111 8.27847C21.0111 8.93505 20.464 9.44572 19.8439 9.44572L17.9471 17.0328C17.6553 18.0542 16.7434 18.7837 15.6855 18.7837H5.28971C4.23189 18.7837 3.31998 18.0542 3.02816 17.0328L1.16786 9.44572C0.511281 9.44572 0.000609398 8.93505 0.000609398 8.27847C0.000609398 7.65837 0.511281 7.11122 1.16786 7.11122H4.26837L7.66069 0.581914C7.87955 0.180671 8.4267 -0.00171146 8.86441 0.217148C9.26566 0.436007 9.44804 0.983156 9.22918 1.42087L6.2381 7.11122ZM6.96763 11.1966C6.96763 10.9048 6.7123 10.613 6.38401 10.613C6.0922 10.613 5.80038 10.9048 5.80038 11.1966V14.6983C5.80038 15.0266 6.0922 15.282 6.38401 15.282C6.7123 15.282 6.96763 15.0266 6.96763 14.6983V11.1966ZM9.88576 11.1966V14.6983C9.88576 15.0266 10.1776 15.282 10.4694 15.282C10.7977 15.282 11.0895 15.0266 11.0895 14.6983V11.1966C11.0895 10.9048 10.7977 10.613 10.4694 10.613C10.1776 10.613 9.88576 10.9048 9.88576 11.1966ZM15.1749 11.1966C15.1749 10.9048 14.883 10.613 14.5912 10.613C14.2629 10.613 14.0076 10.9048 14.0076 11.1966V14.6983C14.0076 15.0266 14.2629 15.282 14.5912 15.282C14.883 15.282 15.1749 15.0266 15.1749 14.6983V11.1966Z" fill="#030712"/>
</svg>
