<svg width="18" height="18" viewBox="0 0 18 18" fill="none" xmlns="http://www.w3.org/2000/svg">
<path d="M9 0C13.957 0 18 4.04297 18 9C18 13.9922 13.957 18 9 18C4.00781 18 0 13.9922 0 9C0 4.04297 4.00781 0 9 0ZM9 4.5C7.59375 4.5 6.46875 5.66016 6.46875 7.03125C6.46875 8.4375 7.59375 9.5625 9 9.5625C10.3711 9.5625 11.5312 8.4375 11.5312 7.03125C11.5312 5.66016 10.3711 4.5 9 4.5ZM9 15.75C10.8281 15.75 12.5156 15.0117 13.7461 13.7812C13.1836 12.3047 11.7773 11.25 10.125 11.25H7.875C6.1875 11.25 4.78125 12.3047 4.21875 13.7812C5.44922 15.0117 7.13672 15.75 9 15.75Z" fill="#F4F4F4"/>
</svg>
